<svg height="432pt" viewBox="-61 0 432 432.50858" width="432pt" xmlns="http://www.w3.org/2000/svg"><path d="m120.941406 317.351562c-1.21875 0-2.433594-.136718-3.621094-.410156-4.949218-1.101562-9.078124-4.5-11.117187-9.144531l-12.761719-28.726563-12.289062 3.191407-47.4375 115.183593c-.296875.71875-.144532 1.546876.382812 2.117188.53125.574219 1.34375.785156 2.082032.546875l38.390624-12.433594c8.53125-2.722656 17.765626 1.203125 21.726563 9.234375l16.8125 34.476563c.347656.707031 1.078125 1.148437 1.867187 1.121093.785157-.027343 1.484376-.515624 1.785157-1.246093l30.429687-74.53125-17.257812-42.183594c-2.644532 1.824219-5.78125 2.800781-8.992188 2.804687zm0 0"/><path d="m230.71875 282.585938-13.566406-3.554688-12.847656 28.769531c-2.058594 4.628907-6.179688 8.019531-11.117188 9.144531-4.941406 1.125-10.125-.148437-13.984375-3.433593l-23.90625-20.34375-12.492187 10.59375 50.941406 124.5c.292968.730469.992187 1.21875 1.78125 1.246093.792968.027344 1.523437-.410156 1.867187-1.121093l16.816407-34.476563c3.957031-8.03125 13.195312-11.957031 21.722656-9.230468l38.390625 12.433593c.742187.238281 1.554687.027344 2.085937-.546875.527344-.570312.675782-1.398437.378906-2.121094zm0 0"/><path d="m228.558594 150.664062c0 40.484376-32.820313 73.304688-73.304688 73.304688s-73.304687-32.820312-73.304687-73.304688c0-40.484374 32.820312-73.304687 73.304687-73.304687s73.304688 32.820313 73.304688 73.304687zm0 0"/><path d="m280.003906 111.488281 14.460938-27.835937 1.480468-7.953125-1.527343 7.855469-30.757813-5.988282c-7.75-1.480468-13.261718-8.390625-12.988281-16.273437l.976563-31.402344-.082032-.066406-30.363281 7.949219c-7.621094 2.023437-15.578125-1.804688-18.757813-9.019532l-12.761718-28.7304685-.109375-.0234375-23.90625 20.34375c-5.992188 5.132812-14.832031 5.132812-20.828125 0l-23.90625-20.34375-.109375.0234375-12.761719 28.7304685c-3.179688 7.214844-11.136719 11.039063-18.757812 9.019532l-30.363282-7.953126-.085937.070313.976562 31.398437c.265625 7.890626-5.25 14.796876-13 16.277344l-30.777343 5.984375-.078126.101563 14.398438 27.835937c3.609375 7.007813 1.59375 15.597657-4.75 20.269531l-25.371094 18.820313v.109375l25.398438 18.882812c6.359375 4.652344 8.417968 13.226563 4.863281 20.257813l-14.46875 27.847656-1.480469 7.949219 1.527344-7.851562 30.757812 5.984374c7.753907 1.480469 13.265626 8.390626 12.992188 16.277344l-.980469 31.398438.085938.070312 30.363281-7.953125c7.621094-2.023437 15.578125 1.804688 18.753906 9.019531l12.765625 28.730469.105469.023438 23.90625-20.34375c5.996094-5.136719 14.835938-5.136719 20.828125 0l23.910156 20.34375.105469-.023438 12.761719-28.730469c3.179687-7.214843 11.136719-11.042968 18.757812-9.019531l30.359375 7.953125.085938-.070312-.984375-31.398438c-.277344-7.886718 5.238281-14.792968 12.984375-16.273437l30.742187-5.988281.015625-.101563-14.535156-27.84375c-3.6875-6.9375-1.785156-15.523437 4.484375-20.257813l24.894531-18.882812v-.109375l-24.871094-18.816406c-6.257812-4.757813-8.113281-13.359375-4.378906-20.273438zm-124.75 128.480469c-49.320312 0-89.304687-39.984375-89.304687-89.308594 0-49.320312 39.984375-89.304687 89.308593-89.300781 49.320313 0 89.304688 39.984375 89.300782 89.308594-.058594 49.296875-40.007813 89.246093-89.304688 89.300781zm0 0"/></svg>